<?xml version="1.0" encoding="utf-8"?>
<!-- Generator: Adobe Illustrator 27.4.0, SVG Export Plug-In . SVG Version: 6.00 Build 0)  -->
<svg version="1.1" id="Layer_1" xmlns="http://www.w3.org/2000/svg" xmlns:xlink="http://www.w3.org/1999/xlink" x="0px" y="0px"
	 viewBox="0 0 1024 1024" style="enable-background:new 0 0 1024 1024;" xml:space="preserve">
<style type="text/css">
	.st0{fill:#FFFFFF;stroke:#000000;stroke-miterlimit:10;}
	.st1{fill:none;stroke:#FFFEF9;stroke-width:8;stroke-miterlimit:10;}
</style>
<circle cx="512" cy="512" r="512"/>
<path class="st0" d="M723.3,763.5c-7.1,0-13.9,0-20.7,0c-5.9-0.1-11.8-0.3-17.7-0.3c-28.6-0.1-57.3-0.4-85.9-0.3
	c-18.8,0.1-37.5,0.6-56.3,1c-1.8,0-2.4-0.5-2.5-2.6c-0.2-4.5-0.6-9-1-13.4c-0.2-1.7,0.3-2.3,1.7-2.8c12-4.1,23.9-8.2,35.9-12.4
	c6.1-2.1,8.5-5.5,8.6-12.7c0.2-13.4,0.5-26.8,0.5-40.2c0-113.2,0-226.3,0-339.5c0-12-0.3-24-0.5-36c-0.1-6.2-2.5-9.8-7.7-11.7
	c-11.9-4.4-23.8-8.7-35.7-13c-1.4-0.5-2.1-1.2-2.2-3c-0.1-5.2-0.4-10.5-0.7-16c3.4,0,6.7-0.1,9.9,0c14.1,0.3,28.3,0.8,42.4,0.9
	c18.5,0.1,37,0.2,55.4-0.2c13.4-0.3,26.8-1.4,40.1-1.7c15.3-0.4,30.6-0.7,45.9-0.3c56.5-1.1,108.7,39.9,119.2,99.6
	c3.5,18.8,3.5,37.7,1.8,56.7c-1.6,18.9-5.5,37.2-12.7,54.5c-11.8,28.5-26.8,53.1-51.2,67.8c-17.8,10.7-19.6,11.1-40.1,16.1
	c-12.7,3.1-26,3-39,2.2c-12.3-0.8-24.6-2.3-36.9-3.5c-0.5,0-1-0.1-1.7-0.2c0,1-0.1,1.9-0.1,2.8c0,36.4-0.1,72.8,0,109.2
	c0,17.8,0.3,35.6,0.5,53.5c0.1,6.6,2.7,10.7,8.4,12.8c12.9,4.6,25.8,9.2,38.7,13.7c2,0.7,2.8,1.7,2.8,4.1
	C722.7,753.7,723.1,758.6,723.3,763.5z M672.2,407.4c0,35.2,0,70.5,0,105.7c0,4.8,0,4.9,4.1,5.7c15.2,3,30.4,4.4,45.7,1.2
	c13.9-2.9,25.9-9.8,35.6-21.5c9.5-11.5,15.1-25.3,18.6-40.3c4.8-20.6,5.8-41.5,5.1-62.7c-0.4-14.1-1.8-28.1-5.1-41.7
	c-3.2-13.3-7.9-25.8-16.1-36.2c-12.1-15.4-28-21.7-45.6-23.5c-13.2-1.3-26.3-0.2-39.4,1.8c-2.2,0.3-2.9,1.1-2.9,3.6
	C672.2,335.6,672.2,371.5,672.2,407.4z M599.9,513.1c0,41.8,0,83.7,0,125.5c0,26.7,0,53.5,0,80.2c0,3.2,1.1,5.1,3.6,6.2
	c4.8,2.1,8.9-1.2,8.9-7c0-136.6,0-273.1,0-409.7c0-0.4,0-0.8,0-1.2c-0.1-3-1.3-4.8-3.7-5.9c-3.6-1.5-8.9,0.5-8.9,7
	C600,376.5,599.9,444.8,599.9,513.1z"/>
<path class="st0" d="M174.2,763.1c-0.5-5.7-1-11.2-1.6-16.6c-0.2-1.7,1-1.8,2.1-2.2c12.5-4.1,25-8.2,37.4-12.3
	c6.7-2.2,9.3-5.6,9.4-12.6c0.2-13.4,0.5-26.8,0.5-40.2c0-113.2,0-226.3,0-339.5c0-12-0.3-24-0.6-36c-0.1-6.1-2.8-9.7-8.6-11.7
	c-12.4-4.3-24.8-8.7-37.2-12.9c-1.6-0.5-2.2-1.2-2.3-2.9c-0.2-5.3-0.6-10.6-0.9-16.3c65.2,1.8,130.1,1.8,195.2,0
	c0.5,5.9,1.1,11.6,1.4,17.3c0,0.6-1.1,1.5-1.8,1.8c-9.7,3.3-19.4,6.4-29.1,9.6c-3.1,1-6.2,2-9.2,3c-5.5,1.8-8.1,5.3-8.3,11.1
	c-0.2,8.2-0.4,16.3-0.4,24.5c-0.1,110.8-0.2,221.6-0.2,332.5c0,15.2,0.2,30.5,0.3,45.7c0,6.1,0,12.1,0,18.5c1.5,0,2.4,0,3.3,0
	c40.4,0,80.8,0,121.2,0c2.1,0,3-0.6,3.9-2.5c14.1-32.4,28.3-64.8,42.4-97.2c0.7-1.5,1.5-2.3,3.2-2.6c5.8-0.8,11.6-1.8,17.8-2.8
	c-0.1,1.3-0.1,2.4-0.2,3.4c-1.1,19-2.1,38.1-3.2,57.1c-1.4,24.6-2.9,49.2-4.3,73.8c-0.1,1.9-0.1,3.8-0.3,5.7c-0.2,3-1.7,4.3-4.6,4.3
	c-33.5-0.3-67-0.6-100.5-0.8c-20.7-0.1-41.5-0.2-62.2-0.2c-32.7,0-65.5-0.1-98.2,0c-20.6,0.1-41.1,0.6-61.7,0.9
	C176.1,763.1,175.3,763.1,174.2,763.1z M252.9,512.8c0-26.9,0-53.8,0-80.7c0-41.6,0-83.2,0-124.7c0-4-1.4-5.9-4.8-6.9
	c-5.2-1.5-9.4,1.6-9.4,7c0,136.5,0,273,0,409.4c0,0.6,0,1.2,0,1.7c0,2.8,1.3,4.7,3.9,5.8c4.2,1.7,10.3-0.3,10.3-6.9
	C252.8,649.3,252.9,581,252.9,512.8z"/>
<circle class="st1" cx="512" cy="512" r="495"/>
</svg>
