<?xml version="1.0" encoding="UTF-8"?><svg id="Layer_1" xmlns="http://www.w3.org/2000/svg" xmlns:xlink="http://www.w3.org/1999/xlink" viewBox="0 0 1460.63 1283.56"><defs><style>.cls-1,.cls-2{fill:#fff;}.cls-2,.cls-3{fill-rule:evenodd;}.cls-4{fill:none;}.cls-5{clip-path:url(#clippath);}.cls-3{fill:#2f2d2e;}</style><clipPath id="clippath"><rect class="cls-4" width="1460.63" height="1283.56"/></clipPath></defs><g id="g10"><g id="g14"><g class="cls-5"><g id="g16"><g id="g22"><path id="path24" class="cls-3" d="M1054.64,184.93H409.98c-52.25,0-71.54,19.28-71.54,71.56v630.79c0,5.92.24,11.41.76,16.5,1.19,11.41,1.41,22.47,12.03,35.06,1.04,1.23,11.87,9.3,11.87,9.3,5.83,2.86,9.81,4.96,16.38,7.61l317.44,133c16.48,7.55,23.37,10.5,35.34,10.26h0s.03,0,.05,0h.05c11.97.24,18.86-2.71,35.34-10.26l317.44-133c6.57-2.65,10.55-4.75,16.38-7.61,0,0,10.83-8.06,11.87-9.3,10.61-12.59,10.84-23.65,12.03-35.06.52-5.09.76-10.59.76-16.5V256.49c0-52.28-19.29-71.56-71.54-71.56"/></g><g id="g26"><path id="path28" class="cls-1" d="M1011.46,819.11l-.15,1.46-.14,1.6-.29,1.46-.43,1.45-.28,1.31-.44,1.46-.58,1.31-.58,1.17-.57,1.31-.73,1.16-.73,1.17-.87,1.16-.73,1.16-.86,1.02-1.02,1.02-.87.87-1.16,1.02-1.01.87-1.16.87-1.16.72-1.16.87-1.31.73-1.3.58-1.3.73-1.46.58-1.45.58-1.45.43-1.45.44-1.31.43-1.45.29-1.3.29-1.3.29-1.46.29-1.45.14-1.3.15-1.46.15-1.59.15-1.45.14h-6.08l-1.45-.14h-1.59l-1.45-.15-1.45-.15-1.59-.15-1.45-.29-1.45-.15-1.46-.29-1.45-.29-1.45-.29-1.45-.29-1.45-.43-1.3-.29-1.45-.44-1.45-.44-1.31-.58-1.45-.44-1.3-.43-1.45-.58-1.31-.58-1.3-.58-1.3-.72-1.31-.58-1.3-.73-1.16-.73-1.31-.73-1.16-.73-1.16-.73-1.16-.87-1.16-.87-1.16-.87-1.16-.87-1.02-.87-1.16-1.02.87-1.16,1.01-1.02.87-1.17,1.01-1.16.87-1.02.86-1.16,1.02-1.17.86-1.02,1.02-1.16.87-1.02,1.02-1.16.87-1.17.87-1.02,1.01-1.16.87-1.17,1.01-1.02.87-1.16,1.16.87,1.3.87,1.16.87,1.3.87,1.16.73,1.3.87,1.15.73,1.31.58,1.15.73,1.3.58,1.31.58,1.3.58,1.3.44,1.31.58,1.45.44,1.45.44,1.3.44,1.46.29,1.45.29,1.45.29,1.59.15,1.45.29h1.45l1.59.14h3.18l1.59-.14,1.46-.29,1.3-.29,1.3-.29,1.16-.44,1.01-.58,1.16-.87.86-1.02.58-1.17.44-1.31.14-1.46v-.29l-.14-1.75-.58-1.46-.73-1.02-1.01-.87-1.17-.87-1.16-.58-1.3-.58-1.46-.58-1.74-.73-1.01-.29-1.15-.29-1.31-.44-1.3-.29-1.45-.44-1.46-.29-1.59-.44-1.45-.29-1.59-.44-1.45-.29-1.46-.44-1.44-.29-1.45-.44-1.31-.43-1.44-.29-1.3-.44-1.3-.44-1.31-.44-1.59-.58-1.45-.58-1.45-.58-1.45-.58-1.3-.73-1.45-.73-1.16-.73-1.3-.73-1.16-.87-1.16-.73-1.01-.87-1.02-1.02-1.01-1.02-.87-1.02-.86-1.02-.73-1.02-.72-1.17-.73-1.31-.58-1.01-.44-1.17-.43-1.31-.44-1.16-.29-1.46-.29-1.31-.15-1.45-.14-1.46-.15-1.6v-3.35l.15-1.45.14-1.31.15-1.46.29-1.31.29-1.31.44-1.31.29-1.31.57-1.31.58-1.31.58-1.31.72-1.31.73-1.31.87-1.17.87-1.16,1.01-1.16,1.02-1.02,1.01-1.17,1.16-1.02,1.01-.73,1.16-.87,1.16-.87,1.15-.73,1.31-.73,1.3-.58,1.3-.73,1.31-.58,1.45-.44,1.45-.58,1.31-.44,1.16-.29,1.3-.29,1.31-.29,1.45-.29,1.3-.29,1.45-.14,1.46-.15,1.45-.15,1.45-.14h6.23l1.59.14,1.59.15h1.45l1.6.15,1.45.29,1.59.15,1.45.29,1.31.29,1.45.29,1.45.29,1.3.29,1.45.44,1.3.44,1.3.29,1.45.58,1.3.44,1.3.58,1.3.58,1.45.58,1.3.73,1.16.58,1.31.73,1.3.73,1.16.73,1.31.87,1.16.73,1.16.87,1.16.87,1.15.87-.86,1.17-.73,1.16-.87,1.16-.87,1.17-.86,1.31-.73,1.16-.87,1.17-.87,1.16-.73,1.16-.87,1.17-.87,1.16-.73,1.16-.86,1.31-.87,1.16-.86,1.16-.73,1.16-.87,1.16-1.16-.87-1.3-.73-1.16-.73-1.16-.87-1.3-.58-1.17-.73-1.3-.58-1.16-.58-1.31-.58-1.16-.58-1.3-.44-1.16-.58-1.59-.43-1.45-.44-1.45-.43-1.46-.29-1.45-.29-1.45-.29-1.45-.15-1.46-.14-1.3-.15h-3.18l-1.59.29-1.46.29-1.3.29-1.16.58-1.02.58-1.3,1.17-.87,1.31-.57,1.31-.15,1.45v.29l.15,1.89.72,1.6.58.87,1.01,1.02,1.31.73,1.16.73,1.45.58,1.6.58,1.74.58,1.16.29,1.16.44,1.31.29,1.3.44,1.45.29,1.6.44,1.59.43,1.59.44,1.59.29,1.45.44,1.59.44,1.46.29,1.45.44,1.45.44,1.3.44,1.46.44,1.3.44,1.3.44,1.6.57,1.45.73,1.45.58,1.45.73,1.31.73,1.3.73,1.15.73,1.16.87,1.16.73,1.16,1.02,1.16,1.02,1.01,1.17,1.02,1.02.87,1.17.87,1.31.72,1.16.73,1.31.58,1.16.44,1.31.43,1.31.29,1.31.29,1.46.29,1.46.15,1.45.15,1.6v3.49l-.15,1.6ZM909.87,848.21h-83v-105.91h83.72v24.01h-56.06v17.31h50.41v22.54h-50.41v18.04h56.79v24h-1.45ZM804.03,848.21h-26.51v-62.63l-.73,1.16-.87,1.32-.73,1.16-.86,1.17-.73,1.31-.87,1.17-.72,1.16-.73,1.32-.86,1.16-.73,1.16-.87,1.17-.72,1.32-.87,1.16-.72,1.16-.73,1.31-.87,1.17-.72,1.17-.87,1.31-.72,1.17-.87,1.16-.72,1.32-.73,1.17-.87,1.16-.72,1.31-.87,1.17-.72,1.16-.87,1.17-.73,1.31-.72,1.17-.87,1.17-.72,1.31-.87,1.16-.73,1.16-.87,1.32-.73,1.16h-.57l-.87-1.31-.73-1.17-.87-1.31-.73-1.16-.87-1.31-.73-1.17-.86-1.31-.73-1.17-.87-1.31-.72-1.16-.87-1.32-.72-1.16-.87-1.31-.73-1.16-.86-1.32-.73-1.16-.86-1.31-.87-1.16-.73-1.32-.87-1.16-.73-1.31-.87-1.16-.73-1.32-.87-1.16-.73-1.31-.87-1.16-.72-1.31-.87-1.17-.72-1.31-.87-1.17-.73-1.31-.86-1.16-.73-1.32-.86-1.16v62.34h-27.52v-105.91h29.7l.72,1.17.73,1.31.86,1.16.73,1.31.73,1.16.72,1.31.73,1.15.87,1.31.73,1.16.73,1.16.72,1.3.73,1.17.87,1.31.73,1.17.73,1.3.72,1.16.87,1.16.73,1.3.72,1.16.73,1.31.72,1.17.87,1.3.73,1.17.72,1.31.73,1.16.72,1.16.87,1.31.73,1.17.72,1.31.73,1.16.72,1.31.87,1.16.73,1.3.72,1.17.73-1.17.73-1.3.87-1.16.73-1.31.72-1.16.73-1.31.87-1.17.73-1.31.73-1.16.72-1.16.87-1.31.72-1.17.73-1.3.73-1.17.87-1.31.73-1.16.73-1.3.72-1.16.73-1.16.86-1.3.73-1.17.73-1.31.72-1.17.87-1.3.72-1.16.73-1.16.73-1.31.86-1.15.73-1.31.72-1.16.73-1.31.87-1.16.72-1.31.73-1.17h29.69v105.91h-1.45ZM635.97,804.56l-.44-1.32-.57-1.46-.58-1.31-.44-1.32-.57-1.31-.58-1.46-.44-1.32-.58-1.31-.57-1.31-.44-1.32-.58-1.46-.43-1.31-.58-1.32-.58-1.31-.43-1.31-.57-1.46-.58-1.31-.44-1.31-.58-1.32-.57-1.46-.44-1.32-.58-1.31-.57,1.31-.43,1.32-.58,1.46-.58,1.32-.43,1.31-.58,1.31-.58,1.46-.57,1.31-.44,1.31-.58,1.32-.58,1.31-.43,1.46-.58,1.32-.58,1.31-.43,1.31-.57,1.32-.58,1.46-.58,1.31-.43,1.32-.58,1.31-.58,1.46-.44,1.32-.57,1.31h24.48l-.58-1.31ZM681.46,848.21h-28.4l-.57-1.31-.44-1.31-.58-1.31-.58-1.45-.43-1.3-.58-1.31-.58-1.31-.43-1.31-.58-1.31-.58-1.31-.43-1.31-.57-1.45-.58-1.31-.44-1.31-.58-1.31h-41.57l-.57,1.31-.44,1.31-.58,1.31-.58,1.45-.43,1.31-.58,1.31-.58,1.31-.44,1.31-.57,1.31-.58,1.31-.44,1.3-.57,1.45-.58,1.31-.44,1.31-.58,1.31h-29.25l.57-1.31.58-1.31.58-1.31.57-1.45.44-1.3.58-1.31.58-1.31.57-1.31.58-1.31.58-1.46.57-1.31.58-1.31.43-1.31.58-1.31.57-1.31.58-1.45.58-1.31.57-1.31.58-1.31.58-1.31.44-1.31.57-1.46.58-1.31.58-1.31.57-1.31.58-1.31.58-1.31.57-1.46.44-1.31.58-1.31.58-1.31.57-1.31.58-1.31.58-1.45.57-1.31.58-1.31.44-1.31.58-1.31.57-1.31.58-1.46.58-1.31.57-1.31.58-1.31.58-1.31.44-1.31.57-1.3.58-1.46.58-1.31.57-1.31.58-1.31.58-1.31.57-1.31.44-1.46.58-1.31.58-1.31.57-1.31.58-1.31.58-1.31.57-1.46.58-1.31.44-1.31.58-1.31.57-1.31.58-1.31.58-1.45.57-1.31.58-1.31.58-1.31.43-1.31.58-1.31.58-1.45.58-1.31.57-1.31.58-1.31.58-1.31.57-1.31.44-1.46.58-1.31.58-1.31.57-1.31h26.8l.58,1.31.58,1.31.57,1.31.58,1.46.44,1.31.57,1.31.58,1.31.58,1.31.58,1.31.57,1.45.58,1.31.58,1.31.43,1.31.58,1.31.58,1.31.58,1.45.57,1.31.58,1.31.58,1.31.57,1.31.44,1.31.58,1.46.57,1.31.58,1.31.58,1.31.58,1.31.57,1.31.58,1.46.44,1.31.57,1.31.58,1.31.58,1.31.58,1.31.57,1.46.58,1.3.58,1.31.43,1.31.58,1.31.58,1.31.57,1.31.58,1.46.58,1.31.58,1.31.57,1.31.44,1.31.58,1.31.57,1.45.58,1.31.58,1.31.58,1.31.57,1.31.58,1.31.43,1.46.57,1.31.58,1.31.58,1.31.57,1.31.58,1.31.58,1.46.58,1.31.43,1.31.58,1.31.58,1.31.57,1.31.58,1.45.58,1.31.58,1.31.57,1.31.44,1.31.58,1.31.57,1.46.58,1.31.58,1.31.57,1.31.58,1.31.58,1.3.44,1.45.57,1.31.58,1.31.58,1.31h-1.44ZM554.55,834.68l-1.16.87-1.01.73-1.16.87-1.16.73-1.16.87-1.16.73-1.16.73-1.31.73-1.3.73-1.3.73-1.31.57-1.3.73-1.45.58-1.3.58-1.46.58-1.3.58-1.3.44-1.31.44-1.3.44-1.45.43-1.3.44-1.46.29-1.3.29-1.45.29-1.45.29-1.45.15-1.59.15-1.45.15-1.59.14-1.46.15-1.59.14h-6.23l-1.45-.14-1.59-.15-1.45-.14-1.45-.15-1.46-.15-1.45-.29-1.45-.29-1.3-.29-1.45-.29-1.3-.44-1.45-.29-1.31-.44-1.3-.58-1.3-.44-1.44-.58-1.31-.58-1.3-.58-1.3-.58-1.31-.73-1.15-.72-1.3-.73-1.16-.73-1.16-.73-1.16-.87-1.16-.87-1.16-.87-1.02-.87-1.01-.87-1.02-1.02-1.01-.87-1.02-1.02-1.01-1.02-.87-1.02-.87-1.16-.87-1.02-.73-1.16-.87-1.17-.73-1.16-.72-1.17-.73-1.31-.73-1.16-.57-1.31-.58-1.31-.58-1.31-.57-1.31-.44-1.16-.58-1.31-.29-1.31-.43-1.31-.29-1.45-.44-1.31-.29-1.45-.15-1.31-.29-1.46-.14-1.31-.15-1.46-.14-1.46-.14-1.45v-4.8l.14-1.6v-1.45l.14-1.46.15-1.6.29-1.45.14-1.46.29-1.31.44-1.45.29-1.46.43-1.31.44-1.45.44-1.31.58-1.46.57-1.31.58-1.31.58-1.31.57-1.31.73-1.31.73-1.16.72-1.17.73-1.16.73-1.16.86-1.16.87-1.16.87-1.16.87-1.02,1.01-1.02.87-1.02,1.01-1.02,1.02-1.02,1.01-.87,1.16-1.02,1.01-.87,1.16-.87,1.16-.73,1.16-.87,1.17-.73,1.15-.73,1.3-.73,1.31-.73,1.3-.73,1.3-.58,1.31-.58,1.45-.73,1.16-.43,1.45-.44,1.31-.58,1.3-.29,1.3-.44,1.45-.29,1.3-.44,1.45-.29,1.45-.15,1.45-.29,1.45-.15,1.44-.14,1.45-.15,1.46-.15h6.22l1.6.15,1.59.15h1.45l1.45.14,1.59.29,1.31.14,1.45.29,1.45.29,1.31.29,1.3.29,1.3.29,1.31.44,1.3.29,1.16.44,1.31.44,1.3.58,1.3.58,1.31.58,1.3.73,1.3.58,1.17.73,1.3.73,1.16.73,1.31.73,1.16.87,1.16.73,1.16.87,1.16.87,1.16,1.02,1.16.87-.87,1.17-1.01,1.02-.87,1.16-1.01,1.16-.87,1.17-.87,1.02-1.02,1.16-.86,1.16-.87,1.02-1.01,1.16-.87,1.16-1.01,1.16-.87,1.02-.86,1.16-1.02,1.16-.87,1.16-1.02,1.02-.87,1.16-1.16-.87-1.16-1.02-1.16-.73-1.16-.87-1.16-.73-1.16-.73-1.16-.73-1.3-.73-1.16-.58-1.16-.58-1.16-.44-1.3-.44-1.3-.44-1.31-.29-1.45-.29-1.45-.29-1.45-.14-1.59-.15-1.6-.14h-3.04l-1.45.14-1.31.15-1.45.29-1.3.29-1.31.43-1.3.44-1.3.58-1.3.58-1.16.73-1.15.73-1.17.73-1.01.87-1.02.87-1.01.87-.87,1.02-1.01,1.02-.87,1.16-.72,1.02-.73,1.16-.72,1.31-.73,1.16-.58,1.31-.44,1.31-.57,1.31-.44,1.45-.29,1.45-.29,1.31-.29,1.6-.14,1.45-.14,1.45v3.35l.14,1.45.14,1.31.15,1.46.29,1.31.29,1.31.29,1.31.44,1.31.43,1.16.58,1.45.58,1.31.72,1.31.73,1.16.73,1.16.87,1.17.87,1.02,1.01,1.02.87,1.02,1.01.87,1.17.87,1.16.87,1.15.73,1.16.73,1.3.58,1.3.58,1.31.58,1.45.44,1.45.44,1.46.29,1.45.29,1.45.14,1.59.15h3.33l1.6-.15,1.59-.14,1.45-.15,1.45-.29,1.46-.29,1.45-.43,1.3-.29,1.3-.58,1.16-.58,1.3-.58,1.02-.58,1.16-.73v-13.24h-21.15v-21.23h47.8v47.28l-1.01.87Z"/></g><g id="g30"><path id="path32" class="cls-1" d="M507.97,502.67h62.78v-48.56h-62.78v-99.14h65.28v-48.56h-118.59v350.47h119.58v-48.56h-66.27v-105.65Z"/></g><g id="g34"><path id="path36" class="cls-1" d="M957.64,513.19v79.11c0,14.02-6.48,20.53-19.93,20.53h-9.97c-13.95,0-20.43-6.5-20.43-20.53v-221.31c0-14.02,6.48-20.52,20.43-20.52h8.97c13.45,0,19.93,6.5,19.93,20.52v68.6h52.31v-71.6c0-43.55-20.93-64.58-64.27-64.58h-25.92c-43.34,0-64.77,21.53-64.77,65.09v226.3c0,43.56,21.43,65.09,64.77,65.09h26.41c43.35,0,64.77-21.52,64.77-65.09v-81.61h-52.32Z"/></g><path id="path38" class="cls-1" d="M772.51,656.88h53.32v-350.47h-53.32v350.47Z"/><g id="g40"><path id="path42" class="cls-1" d="M695.14,462.12c0,14.02-6.47,20.53-19.92,20.53h-21.93v-129.18h21.93c13.45,0,19.92,6.51,19.92,20.52v88.12ZM683.68,306.41h-83.71v350.47h53.31v-127.18h30.39c43.35,0,64.77-21.52,64.77-65.08v-93.13c0-43.56-21.42-65.09-64.77-65.09"/></g><g id="g44"><path id="path46" class="cls-2" d="M580.43,973.78h305.2l-155.78,51.37-149.42-51.37Z"/></g></g></g></g></g></svg>